<svg id="Calque_1" data-name="Calque 1" xmlns="http://www.w3.org/2000/svg" viewBox="0 0 240.64 80.4">
	<defs><style>.cls-1{fill:#fff;}</style></defs>
	<path  class="cls-1" d="M50.7,64h6.8a.76.76,0,0,0,.4-.2c.7-.9,1.5-1.8,2.2-2.7,3.9-4.7,7.7-9.4,11.6-14.2l.3-.3c-.1,3.8-.1,7.5-.2,11.3H66.6a.91.91,0,0,0-.7.3c-1.4,1.8-2.9,3.6-4.4,5.4-.1.1-.1.2-.2.3H78.1c-.2-10.9-.5-21.7-.7-32.7C68.4,42.3,59.6,53.1,50.7,64Zm-17,0h5.6c.4,0,.6-.1.7-.5,1.3-4.5,2.7-9,4-13.5.1-.3.2-.4.5-.4,1.7,0,3.4,0,5.1-.1a20.24,20.24,0,0,0,5.5-.7,7.43,7.43,0,0,0,4.7-3.6A11.68,11.68,0,0,0,61,38.8a5.94,5.94,0,0,0-3.5-5.2,9.88,9.88,0,0,0-4.5-1H43.4c-.3,0-.4.1-.5.4-.5,1.7-1,3.3-1.5,5-.1.2-.1.4-.2.6h.6c3.6,0,7.3,0,10.9.1a7.72,7.72,0,0,1,1.5.2,1.88,1.88,0,0,1,1.5,1.2,3,3,0,0,1-1.5,3.4,8.51,8.51,0,0,1-2.2.4H40a.46.46,0,0,0-.5.3C37.8,50,36,55.8,34.3,61.7A9.77,9.77,0,0,1,33.7,64Zm75.8-30.3c0-.1-.1-.1-.1-.2l-1.2-.6a12.32,12.32,0,0,0-7.1-.6,19,19,0,0,0-12.8,8.5,23.18,23.18,0,0,0-3.6,9.1,22.21,22.21,0,0,0-.3,6.8,8.83,8.83,0,0,0,6.9,7.5,14.74,14.74,0,0,0,7.8-.3,16.24,16.24,0,0,0,4-1.9c-.9-1.5-1.9-3.1-2.8-4.6-.1.1-.3.1-.4.2a9.52,9.52,0,0,1-6.2.9,3.3,3.3,0,0,1-2.9-2.6,10.07,10.07,0,0,1-.3-2.5,18.81,18.81,0,0,1,1.6-7,14.8,14.8,0,0,1,5.2-6.6,8.63,8.63,0,0,1,7-1.4,1.06,1.06,0,0,0,.5-.2l2.1-2.1C107.7,35.3,108.6,34.5,109.5,33.7Zm90.2,41.6H152.3C165.2,85.8,185.5,86.6,199.7,75.3ZM37.8,32.7H31.3a5.54,5.54,0,0,0-1.8.2,8.55,8.55,0,0,0-6.8,6C21.1,44,19.6,49.1,18,54.3a3.09,3.09,0,0,1-1.1,1.6,7.54,7.54,0,0,1-4,1.7,31.06,31.06,0,0,1-3.2.4c-.6,2-1.2,4-1.8,6.1a31.43,31.43,0,0,0,5.4-.3,14.91,14.91,0,0,0,7.1-2.9,8.56,8.56,0,0,0,3.2-4.5c1.3-4.4,2.7-8.9,4-13.3a18.66,18.66,0,0,1,.7-2.2,2.74,2.74,0,0,1,2.9-2.1h4.3a.46.46,0,0,0,.5-.3c.3-1.2.7-2.4,1.1-3.7C37.4,34,37.6,33.4,37.8,32.7ZM114.2,58c0-.2.1-.3.1-.4.6-2,1.2-4.1,1.8-6.1.1-.4.3-.5.6-.5h11.1c.3,0,.4-.1.5-.4.3-1.2.7-2.3,1.1-3.5.2-.7.4-1.4.6-2.2H111.9c-1.9,6.3-3.8,12.7-5.7,19h17.7c.2,0,.3-.1.4-.3.4-1.2.7-2.5,1.1-3.7.2-.7.4-1.3.6-2C122.2,58,118.2,58,114.2,58Zm19.6-25.2H116c-.2,0-.3.1-.4.3-.5,1.9-1.1,3.7-1.7,5.6a.37.37,0,0,1-.1.3h16.8c.4,0,.9.1,1.2-.1s.3-.7.4-1.1C132.8,36.1,133.3,34.4,133.8,32.8Z" transform="translate(-4.86 -6.2)"/>
	<path class="cls-1" d="M176.1,6.2c.1,0,.2.1.3.1a37.24,37.24,0,0,1,7.4.8,38.62,38.62,0,0,1,27.5,22.1,34.66,34.66,0,0,1,2.8,9.5,39.59,39.59,0,0,1,.1,11.4,40,40,0,0,1-1.8,7.6c-.1.2-.2.3-.4.3H196.9c2.5-8.4,5-16.8,7.6-25.3h-5.7a.46.46,0,0,0-.5.3c-2.3,7.8-4.7,15.6-7,23.4l-2.1,7.2c0,.1-.1.2-.1.4h20.5a37.24,37.24,0,0,1-5.9,7.8h22.4c-1.3-1.8-2.6-3.5-3.9-5.3v-.1c1.8.9,3.7,1.9,5.6,2.9.5-6.9,1-13.8,1.5-20.6h0c.5,6.8,1.1,13.5,1.6,20.4,1.8-1.2,3.6-2.3,5.3-3.4l.1.1c-1.2,2-2.3,4-3.5,6l12.7,1.8h0l-12.8,1.2c1.6,2.1,3.2,4.1,4.8,6.1V81c-2.1-1.3-4.1-2.6-6.2-3.9-.6,3.2-1.2,6.3-1.8,9.5h0c-.3-3.3-.7-6.6-1.1-10-1.8,1-3.6,1.9-5.3,2.8l-.1-.1c1-1.4,2-2.7,3.1-4.1h-26c1.3-1.1,2.5-2.2,3.7-3.3a.1.1,0,0,0-.1-.1h-55a.1.1,0,0,1-.1.1c1.2,1.1,2.4,2.1,3.6,3.2H4.9A2.16,2.16,0,0,1,5,74c.2-.6.4-1.3.6-1.9.1-.2.2-.3.4-.3H148.3a40,40,0,0,1-5.9-7.8h.5c2.9,0,5.9.1,8.8,0a15.52,15.52,0,0,0,8.6-2.6,10.06,10.06,0,0,0,4.4-8.2,5.84,5.84,0,0,0-2.5-5.3c-.2-.1-.4-.3-.6-.4.6-.4,1.1-.7,1.7-1.1a8.9,8.9,0,0,0,3.2-5.6,6.66,6.66,0,0,0-.4-4.4,6.1,6.1,0,0,0-4.7-3.5,11.14,11.14,0,0,0-1.7-.2H147.2c-.3,0-.4.1-.5.4-.5,1.8-1,3.5-1.6,5.3,0,.1,0,.1-.1.3h12.6a6.6,6.6,0,0,1,1.4.1,1.9,1.9,0,0,1,1.6,2.1,4.42,4.42,0,0,1-4.6,4.4H143.5c-.4,0-.5.1-.6.5-.4,1.5-.9,3-1.4,4.5,0,.1-.1.3-.1.4h13.4a12.25,12.25,0,0,1,1.9.2,2.62,2.62,0,0,1,2.1,3.6,4.54,4.54,0,0,1-3.2,3.1,7.27,7.27,0,0,1-2.5.4H140.2a.55.55,0,0,1-.6-.4,41,41,0,0,1-2.1-9.7,38.66,38.66,0,0,1,1.2-13.1A38,38,0,0,1,148,18.2a36.81,36.81,0,0,1,14.2-9.4,35.41,35.41,0,0,1,9.6-2.3c1.2-.1,2.4-.1,3.5-.2a.9.9,0,0,0,.5-.1ZM189.6,45H172.1c-.4,0-.5.1-.6.5l-4.8,15.9c-.3.9-.5,1.8-.8,2.7h17.7c.3,0,.4-.1.4-.3.4-1.3.7-2.5,1.1-3.8.2-.6.4-1.3.6-1.9h-12c0-.1.1-.2.1-.3.6-2.1,1.2-4.1,1.8-6.2.1-.3.2-.4.6-.4h11.1c.3,0,.4-.1.5-.4.3-1.1.7-2.3,1-3.4C189.1,46.6,189.3,45.8,189.6,45Zm-16.3-6.1H191c.3,0,.4-.1.4-.4.3-1,.6-2.1.9-3.1s.5-1.8.8-2.7H175.3c-.2,0-.3.1-.4.3l-1.2,4.2A5.93,5.93,0,0,1,173.3,38.9Z" transform="translate(-4.86 -6.2)"/>
	<path class="cls-1" d="M50.7,64c8.9-10.9,17.7-21.7,26.6-32.7.2,11,.5,21.8.7,32.7H61.2c.1-.1.1-.2.2-.3,1.5-1.8,2.9-3.6,4.4-5.4a.91.91,0,0,1,.7-.3h5.2c.1-3.8.1-7.5.2-11.3l-.3.3c-3.9,4.7-7.7,9.4-11.6,14.2-.7.9-1.4,1.8-2.2,2.7a.76.76,0,0,1-.4.2H50.8C50.8,64,50.8,64,50.7,64Z" transform="translate(-4.86 -6.2)"/>
	<path class="cls-1" d="M33.7,64c.2-.8.5-1.6.7-2.3,1.7-5.8,3.5-11.6,5.2-17.5.1-.3.2-.3.5-.3h12a8.51,8.51,0,0,0,2.2-.4,2.86,2.86,0,0,0,1.5-3.4,2.24,2.24,0,0,0-1.5-1.2,7.72,7.72,0,0,0-1.5-.2c-3.6,0-7.3,0-10.9-.1h-.6c.1-.2.1-.4.2-.6.5-1.7,1-3.3,1.5-5,.1-.3.2-.4.5-.4h9.6a10.18,10.18,0,0,1,4.5,1,5.82,5.82,0,0,1,3.5,5.2,11.85,11.85,0,0,1-1.2,6.4,7.43,7.43,0,0,1-4.7,3.6,20.24,20.24,0,0,1-5.5.7c-1.7,0-3.4,0-5.1.1-.3,0-.5.1-.5.4-1.3,4.5-2.7,9-4,13.5-.1.4-.3.5-.7.5H33.7Z" transform="translate(-4.86 -6.2)"/>
	<path class="cls-1" d="M109.5,33.7a30.7,30.7,0,0,0-2.6,2.5l-2.1,2.1a.76.76,0,0,1-.5.2,8.63,8.63,0,0,0-7,1.4,14.15,14.15,0,0,0-5.2,6.6,18.81,18.81,0,0,0-1.6,7,10.68,10.68,0,0,0,.3,2.5,3.53,3.53,0,0,0,2.9,2.6,8.93,8.93,0,0,0,6.2-.9c.1-.1.3-.1.4-.2.9,1.5,1.9,3.1,2.8,4.6a20.88,20.88,0,0,1-4,1.9,13.83,13.83,0,0,1-7.8.3,8.83,8.83,0,0,1-6.9-7.5,17.26,17.26,0,0,1,.3-6.8,23.8,23.8,0,0,1,3.6-9.1,19,19,0,0,1,12.8-8.5,12.32,12.32,0,0,1,7.1.6l1.2.6C109.4,33.5,109.5,33.6,109.5,33.7Z" transform="translate(-4.86 -6.2)"/>
	<path class="cls-1" d="M199.7,75.3c-14.1,11.3-34.5,10.5-47.4,0Z" transform="translate(-4.86 -6.2)"/>
	<path class="cls-1" d="M37.8,32.7c-.2.7-.4,1.4-.6,2-.4,1.2-.7,2.4-1.1,3.7-.1.3-.2.3-.5.3H31.3a2.81,2.81,0,0,0-2.9,2.1,18.66,18.66,0,0,1-.7,2.2c-1.3,4.4-2.7,8.9-4,13.3a9.14,9.14,0,0,1-3.2,4.5,14.34,14.34,0,0,1-7.1,2.9A32.61,32.61,0,0,1,8,64l1.8-6c1.1-.1,2.1-.2,3.2-.4a8,8,0,0,0,4-1.7,3.09,3.09,0,0,0,1.1-1.6c1.5-5.2,3.1-10.3,4.7-15.5a8.41,8.41,0,0,1,6.8-6,11,11,0,0,1,1.8-.2C33.4,32.6,35.6,32.7,37.8,32.7Z" transform="translate(-4.86 -6.2)"/>
	<path class="cls-1" d="M114.2,58h11.9c-.2.7-.4,1.4-.6,2-.4,1.2-.7,2.5-1.1,3.7-.1.2-.1.3-.4.3H106.3c1.9-6.3,3.8-12.7,5.7-19h18.1c-.2.7-.4,1.4-.6,2.2-.4,1.2-.7,2.3-1.1,3.5-.1.3-.2.4-.5.4H116.8c-.4,0-.5.1-.6.5-.6,2-1.2,4.1-1.8,6.1C114.3,57.8,114.3,57.9,114.2,58Z" transform="translate(-4.86 -6.2)"/>
	<path class="cls-1" d="M133.8,32.8c-.5,1.7-1,3.3-1.5,4.9a2.82,2.82,0,0,1-.4,1.1c-.3.2-.8.1-1.2.1H113.9a.37.37,0,0,1,.1-.3c.6-1.9,1.1-3.7,1.7-5.6.1-.2.1-.3.4-.3h17.6C133.6,32.7,133.7,32.7,133.8,32.8Z" transform="translate(-4.86 -6.2)"/>
</svg>